<mxfile host="app.diagrams.net" agent="Mozilla/5.0 (Windows NT 10.0; Win64; x64) AppleWebKit/537.36 (KHTML, like Gecko) Chrome/135.0.0.0 Safari/537.36" version="27.0.3">
  <diagram name="Page-1" id="6xLFIvkErTABRbjkMQLA">
    <mxGraphModel dx="3000" dy="2414" grid="1" gridSize="10" guides="1" tooltips="1" connect="1" arrows="1" fold="1" page="1" pageScale="1" pageWidth="827" pageHeight="1169" math="0" shadow="0">
      <root>
        <mxCell id="0" />
        <mxCell id="1" parent="0" />
        <mxCell id="qeeudWH_gzWze_9S-54P-1" value="" style="rounded=0;whiteSpace=wrap;html=1;" vertex="1" parent="1">
          <mxGeometry x="110" y="60" width="570" height="860" as="geometry" />
        </mxCell>
        <mxCell id="qeeudWH_gzWze_9S-54P-28" value="" style="edgeStyle=orthogonalEdgeStyle;rounded=0;orthogonalLoop=1;jettySize=auto;html=1;" edge="1" parent="1" source="qeeudWH_gzWze_9S-54P-8">
          <mxGeometry relative="1" as="geometry">
            <mxPoint x="180" y="-10" as="sourcePoint" />
            <mxPoint x="180.01" y="90" as="targetPoint" />
            <Array as="points">
              <mxPoint x="180" y="-10" />
            </Array>
          </mxGeometry>
        </mxCell>
        <mxCell id="qeeudWH_gzWze_9S-54P-2" value="Guest" style="shape=umlActor;verticalLabelPosition=bottom;verticalAlign=top;html=1;outlineConnect=0;" vertex="1" parent="1">
          <mxGeometry x="150" y="-130" width="70" height="120" as="geometry" />
        </mxCell>
        <mxCell id="qeeudWH_gzWze_9S-54P-30" style="edgeStyle=orthogonalEdgeStyle;rounded=0;orthogonalLoop=1;jettySize=auto;html=1;exitX=0.5;exitY=0.5;exitDx=0;exitDy=0;exitPerimeter=0;" edge="1" parent="1" source="qeeudWH_gzWze_9S-54P-3" target="qeeudWH_gzWze_9S-54P-21">
          <mxGeometry relative="1" as="geometry" />
        </mxCell>
        <mxCell id="qeeudWH_gzWze_9S-54P-3" value="Admin" style="shape=umlActor;verticalLabelPosition=bottom;verticalAlign=top;html=1;outlineConnect=0;" vertex="1" parent="1">
          <mxGeometry x="320" y="940" width="100" height="150" as="geometry" />
        </mxCell>
        <mxCell id="qeeudWH_gzWze_9S-54P-29" style="edgeStyle=orthogonalEdgeStyle;rounded=0;orthogonalLoop=1;jettySize=auto;html=1;exitX=0.5;exitY=0.5;exitDx=0;exitDy=0;exitPerimeter=0;entryX=0.5;entryY=0;entryDx=0;entryDy=0;" edge="1" parent="1" source="qeeudWH_gzWze_9S-54P-4" target="qeeudWH_gzWze_9S-54P-26">
          <mxGeometry relative="1" as="geometry">
            <Array as="points">
              <mxPoint x="580" y="130" />
            </Array>
          </mxGeometry>
        </mxCell>
        <mxCell id="qeeudWH_gzWze_9S-54P-4" value="Host" style="shape=umlActor;verticalLabelPosition=bottom;verticalAlign=top;html=1;outlineConnect=0;" vertex="1" parent="1">
          <mxGeometry x="800" y="70" width="75" height="120" as="geometry" />
        </mxCell>
        <mxCell id="qeeudWH_gzWze_9S-54P-9" value="Login" style="ellipse;whiteSpace=wrap;html=1;" vertex="1" parent="1">
          <mxGeometry x="120" y="190" width="120" height="80" as="geometry" />
        </mxCell>
        <mxCell id="qeeudWH_gzWze_9S-54P-10" value="Search&amp;nbsp;&lt;div&gt;Listings&lt;/div&gt;" style="ellipse;whiteSpace=wrap;html=1;" vertex="1" parent="1">
          <mxGeometry x="120" y="280" width="120" height="80" as="geometry" />
        </mxCell>
        <mxCell id="qeeudWH_gzWze_9S-54P-40" value="" style="edgeStyle=orthogonalEdgeStyle;rounded=0;orthogonalLoop=1;jettySize=auto;html=1;dashed=1;" edge="1" parent="1" source="qeeudWH_gzWze_9S-54P-11">
          <mxGeometry relative="1" as="geometry">
            <mxPoint x="180" y="510" as="targetPoint" />
          </mxGeometry>
        </mxCell>
        <mxCell id="qeeudWH_gzWze_9S-54P-11" value="Book&lt;div&gt;Property&lt;/div&gt;" style="ellipse;whiteSpace=wrap;html=1;" vertex="1" parent="1">
          <mxGeometry x="120" y="370" width="120" height="80" as="geometry" />
        </mxCell>
        <mxCell id="qeeudWH_gzWze_9S-54P-12" value="Cancel&lt;div&gt;Booking&lt;/div&gt;" style="ellipse;whiteSpace=wrap;html=1;" vertex="1" parent="1">
          <mxGeometry x="120" y="504.5" width="120" height="80" as="geometry" />
        </mxCell>
        <mxCell id="qeeudWH_gzWze_9S-54P-13" value="Leave&lt;div&gt;Review&lt;/div&gt;" style="ellipse;whiteSpace=wrap;html=1;" vertex="1" parent="1">
          <mxGeometry x="120" y="610" width="120" height="80" as="geometry" />
        </mxCell>
        <mxCell id="qeeudWH_gzWze_9S-54P-42" value="" style="edgeStyle=orthogonalEdgeStyle;rounded=0;orthogonalLoop=1;jettySize=auto;html=1;dashed=1;" edge="1" parent="1" source="qeeudWH_gzWze_9S-54P-14" target="qeeudWH_gzWze_9S-54P-15">
          <mxGeometry relative="1" as="geometry" />
        </mxCell>
        <mxCell id="qeeudWH_gzWze_9S-54P-14" value="Add&lt;div&gt;Listing&lt;/div&gt;" style="ellipse;whiteSpace=wrap;html=1;" vertex="1" parent="1">
          <mxGeometry x="520" y="270" width="120" height="80" as="geometry" />
        </mxCell>
        <mxCell id="qeeudWH_gzWze_9S-54P-46" value="" style="edgeStyle=orthogonalEdgeStyle;rounded=0;orthogonalLoop=1;jettySize=auto;html=1;dashed=1;" edge="1" parent="1" source="qeeudWH_gzWze_9S-54P-15" target="qeeudWH_gzWze_9S-54P-17">
          <mxGeometry relative="1" as="geometry" />
        </mxCell>
        <mxCell id="qeeudWH_gzWze_9S-54P-15" value="Edit&lt;div&gt;Listing&lt;/div&gt;" style="ellipse;whiteSpace=wrap;html=1;" vertex="1" parent="1">
          <mxGeometry x="520" y="390" width="120" height="80" as="geometry" />
        </mxCell>
        <mxCell id="qeeudWH_gzWze_9S-54P-17" value="Delete&lt;div&gt;Listing&lt;/div&gt;" style="ellipse;whiteSpace=wrap;html=1;" vertex="1" parent="1">
          <mxGeometry x="520" y="520" width="120" height="80" as="geometry" />
        </mxCell>
        <mxCell id="qeeudWH_gzWze_9S-54P-19" value="View&amp;nbsp;&lt;div&gt;Bookings&lt;/div&gt;" style="ellipse;whiteSpace=wrap;html=1;" vertex="1" parent="1">
          <mxGeometry x="520" y="620" width="120" height="80" as="geometry" />
        </mxCell>
        <mxCell id="qeeudWH_gzWze_9S-54P-20" value="Respond to&amp;nbsp;&lt;div&gt;Reviews&lt;/div&gt;" style="ellipse;whiteSpace=wrap;html=1;" vertex="1" parent="1">
          <mxGeometry x="520" y="720" width="120" height="80" as="geometry" />
        </mxCell>
        <mxCell id="qeeudWH_gzWze_9S-54P-21" value="Manage&lt;div&gt;Users&lt;/div&gt;" style="ellipse;whiteSpace=wrap;html=1;" vertex="1" parent="1">
          <mxGeometry x="310" y="800" width="120" height="80" as="geometry" />
        </mxCell>
        <mxCell id="qeeudWH_gzWze_9S-54P-22" value="Manage&lt;div&gt;Liistings&lt;/div&gt;" style="ellipse;whiteSpace=wrap;html=1;" vertex="1" parent="1">
          <mxGeometry x="310" y="710" width="120" height="80" as="geometry" />
        </mxCell>
        <mxCell id="qeeudWH_gzWze_9S-54P-23" value="View Reports" style="ellipse;whiteSpace=wrap;html=1;" vertex="1" parent="1">
          <mxGeometry x="310" y="610" width="120" height="80" as="geometry" />
        </mxCell>
        <mxCell id="qeeudWH_gzWze_9S-54P-25" value="Login" style="ellipse;whiteSpace=wrap;html=1;" vertex="1" parent="1">
          <mxGeometry x="520" y="180" width="120" height="80" as="geometry" />
        </mxCell>
        <mxCell id="qeeudWH_gzWze_9S-54P-26" value="Register" style="ellipse;whiteSpace=wrap;html=1;" vertex="1" parent="1">
          <mxGeometry x="520" y="90" width="120" height="80" as="geometry" />
        </mxCell>
        <mxCell id="qeeudWH_gzWze_9S-54P-32" value="Manage&lt;div&gt;Bookings&lt;/div&gt;" style="ellipse;whiteSpace=wrap;html=1;" vertex="1" parent="1">
          <mxGeometry x="310" y="520" width="120" height="80" as="geometry" />
        </mxCell>
        <mxCell id="qeeudWH_gzWze_9S-54P-33" value="Manage Payments" style="ellipse;whiteSpace=wrap;html=1;" vertex="1" parent="1">
          <mxGeometry x="310" y="430" width="120" height="80" as="geometry" />
        </mxCell>
        <mxCell id="qeeudWH_gzWze_9S-54P-35" value="" style="edgeStyle=orthogonalEdgeStyle;rounded=0;orthogonalLoop=1;jettySize=auto;html=1;" edge="1" parent="1" target="qeeudWH_gzWze_9S-54P-8">
          <mxGeometry relative="1" as="geometry">
            <mxPoint x="180" y="-10" as="sourcePoint" />
            <mxPoint x="180.01" y="90" as="targetPoint" />
            <Array as="points" />
          </mxGeometry>
        </mxCell>
        <mxCell id="qeeudWH_gzWze_9S-54P-48" value="" style="edgeStyle=orthogonalEdgeStyle;rounded=0;orthogonalLoop=1;jettySize=auto;html=1;dashed=1;" edge="1" parent="1" source="qeeudWH_gzWze_9S-54P-8" target="qeeudWH_gzWze_9S-54P-9">
          <mxGeometry relative="1" as="geometry" />
        </mxCell>
        <mxCell id="qeeudWH_gzWze_9S-54P-8" value="Register" style="ellipse;whiteSpace=wrap;html=1;" vertex="1" parent="1">
          <mxGeometry x="120" y="70" width="120" height="80" as="geometry" />
        </mxCell>
        <mxCell id="qeeudWH_gzWze_9S-54P-49" value="" style="whiteSpace=wrap;html=1;aspect=fixed;" vertex="1" parent="1">
          <mxGeometry x="-700" y="340" width="80" height="80" as="geometry" />
        </mxCell>
      </root>
    </mxGraphModel>
  </diagram>
</mxfile>
